<mxfile host="app.diagrams.net" agent="Mozilla/5.0 (Macintosh; Intel Mac OS X 10_15_7) AppleWebKit/537.36 (KHTML, like Gecko) Chrome/128.0.0.0 Safari/537.36" version="24.7.8">
  <diagram name="第 1 页" id="qhgzxzfY0M7wBXLChHcc">
    <mxGraphModel dx="875" dy="517" grid="1" gridSize="10" guides="1" tooltips="1" connect="1" arrows="1" fold="1" page="1" pageScale="1" pageWidth="827" pageHeight="1169" math="0" shadow="0">
      <root>
        <mxCell id="0" />
        <mxCell id="1" parent="0" />
        <mxCell id="2_8pNaF0JGxz7HWhpokf-21" value="" style="rounded=0;whiteSpace=wrap;html=1;fillColor=none;dashed=1;" vertex="1" parent="1">
          <mxGeometry x="80" y="130" width="520" height="400" as="geometry" />
        </mxCell>
        <mxCell id="2_8pNaF0JGxz7HWhpokf-18" value="" style="rounded=0;whiteSpace=wrap;html=1;fillColor=#ffe6cc;strokeColor=#d79b00;opacity=40;" vertex="1" parent="1">
          <mxGeometry x="299.5" y="160" width="280.5" height="360" as="geometry" />
        </mxCell>
        <mxCell id="2_8pNaF0JGxz7HWhpokf-17" value="" style="rounded=0;whiteSpace=wrap;html=1;fillColor=#dae8fc;strokeColor=#6c8ebf;opacity=40;" vertex="1" parent="1">
          <mxGeometry x="99" y="160" width="161" height="360" as="geometry" />
        </mxCell>
        <mxCell id="2_8pNaF0JGxz7HWhpokf-1" value="用户" style="shape=umlActor;verticalLabelPosition=bottom;verticalAlign=top;html=1;outlineConnect=0;" vertex="1" parent="1">
          <mxGeometry x="165" y="180" width="30" height="60" as="geometry" />
        </mxCell>
        <mxCell id="2_8pNaF0JGxz7HWhpokf-2" value="数据生产" style="rounded=1;whiteSpace=wrap;html=1;fontSize=16;opacity=70;" vertex="1" parent="1">
          <mxGeometry x="120" y="320" width="120" height="60" as="geometry" />
        </mxCell>
        <mxCell id="2_8pNaF0JGxz7HWhpokf-3" value="Mysql" style="rounded=1;whiteSpace=wrap;html=1;fontSize=16;opacity=70;" vertex="1" parent="1">
          <mxGeometry x="120" y="440" width="120" height="60" as="geometry" />
        </mxCell>
        <mxCell id="2_8pNaF0JGxz7HWhpokf-4" value="ElasticSearch" style="rounded=1;whiteSpace=wrap;html=1;fontSize=16;opacity=70;" vertex="1" parent="1">
          <mxGeometry x="440" y="440" width="120" height="60" as="geometry" />
        </mxCell>
        <mxCell id="2_8pNaF0JGxz7HWhpokf-5" value="缓存" style="rounded=1;whiteSpace=wrap;html=1;fontSize=16;opacity=70;" vertex="1" parent="1">
          <mxGeometry x="320" y="320" width="120" height="60" as="geometry" />
        </mxCell>
        <mxCell id="2_8pNaF0JGxz7HWhpokf-6" value="用户" style="shape=umlActor;verticalLabelPosition=bottom;verticalAlign=top;html=1;outlineConnect=0;" vertex="1" parent="1">
          <mxGeometry x="485" y="180" width="30" height="60" as="geometry" />
        </mxCell>
        <mxCell id="2_8pNaF0JGxz7HWhpokf-7" value="" style="endArrow=classic;html=1;rounded=0;" edge="1" parent="1">
          <mxGeometry width="50" height="50" relative="1" as="geometry">
            <mxPoint x="179" y="265" as="sourcePoint" />
            <mxPoint x="179" y="316" as="targetPoint" />
          </mxGeometry>
        </mxCell>
        <mxCell id="2_8pNaF0JGxz7HWhpokf-8" value="" style="endArrow=classic;html=1;rounded=0;fontSize=16;" edge="1" parent="1">
          <mxGeometry width="50" height="50" relative="1" as="geometry">
            <mxPoint x="179.5" y="385" as="sourcePoint" />
            <mxPoint x="179.5" y="435" as="targetPoint" />
          </mxGeometry>
        </mxCell>
        <mxCell id="2_8pNaF0JGxz7HWhpokf-10" value="" style="endArrow=classic;html=1;rounded=0;fontSize=16;" edge="1" parent="1">
          <mxGeometry width="50" height="50" relative="1" as="geometry">
            <mxPoint x="245" y="350" as="sourcePoint" />
            <mxPoint x="315" y="350" as="targetPoint" />
          </mxGeometry>
        </mxCell>
        <mxCell id="2_8pNaF0JGxz7HWhpokf-11" value="" style="endArrow=classic;html=1;rounded=0;" edge="1" parent="1">
          <mxGeometry width="50" height="50" relative="1" as="geometry">
            <mxPoint x="480" y="265" as="sourcePoint" />
            <mxPoint x="480" y="435" as="targetPoint" />
          </mxGeometry>
        </mxCell>
        <mxCell id="2_8pNaF0JGxz7HWhpokf-12" value="" style="endArrow=classic;html=1;rounded=0;fontSize=16;" edge="1" parent="1">
          <mxGeometry width="50" height="50" relative="1" as="geometry">
            <mxPoint x="476" y="330" as="sourcePoint" />
            <mxPoint x="445" y="330" as="targetPoint" />
          </mxGeometry>
        </mxCell>
        <mxCell id="2_8pNaF0JGxz7HWhpokf-13" value="" style="endArrow=none;html=1;rounded=0;startArrow=classic;startFill=1;endFill=0;fontSize=16;" edge="1" parent="1">
          <mxGeometry width="50" height="50" relative="1" as="geometry">
            <mxPoint x="475" y="370" as="sourcePoint" />
            <mxPoint x="445" y="370" as="targetPoint" />
          </mxGeometry>
        </mxCell>
        <mxCell id="2_8pNaF0JGxz7HWhpokf-14" value="" style="endArrow=none;html=1;rounded=0;startArrow=classic;startFill=1;endFill=0;" edge="1" parent="1">
          <mxGeometry width="50" height="50" relative="1" as="geometry">
            <mxPoint x="520" y="265" as="sourcePoint" />
            <mxPoint x="520" y="435" as="targetPoint" />
          </mxGeometry>
        </mxCell>
        <mxCell id="2_8pNaF0JGxz7HWhpokf-15" value="同步至缓存" style="text;html=1;align=center;verticalAlign=middle;whiteSpace=wrap;rounded=0;" vertex="1" parent="1">
          <mxGeometry x="244" y="315" width="70" height="30" as="geometry" />
        </mxCell>
        <mxCell id="2_8pNaF0JGxz7HWhpokf-16" value="数据权限、置顶、协作分享等" style="text;html=1;align=center;verticalAlign=middle;whiteSpace=wrap;rounded=0;" vertex="1" parent="1">
          <mxGeometry x="321" y="287" width="100" height="30" as="geometry" />
        </mxCell>
        <mxCell id="2_8pNaF0JGxz7HWhpokf-19" value="" style="endArrow=classic;html=1;rounded=0;fontSize=16;" edge="1" parent="1">
          <mxGeometry width="50" height="50" relative="1" as="geometry">
            <mxPoint x="244" y="469.58" as="sourcePoint" />
            <mxPoint x="434" y="469.58" as="targetPoint" />
          </mxGeometry>
        </mxCell>
        <mxCell id="2_8pNaF0JGxz7HWhpokf-20" value="B&lt;span style=&quot;background-color: initial;&quot;&gt;inlog同步（课件，Paper等资源数据）&lt;/span&gt;" style="text;html=1;align=center;verticalAlign=middle;whiteSpace=wrap;rounded=0;" vertex="1" parent="1">
          <mxGeometry x="280" y="440" width="110" height="30" as="geometry" />
        </mxCell>
        <mxCell id="2_8pNaF0JGxz7HWhpokf-22" value="SAAS云盘数据流转核心流程" style="text;html=1;align=center;verticalAlign=middle;whiteSpace=wrap;rounded=0;" vertex="1" parent="1">
          <mxGeometry x="80" y="123" width="160" height="30" as="geometry" />
        </mxCell>
      </root>
    </mxGraphModel>
  </diagram>
</mxfile>
